<?xml version="1.0" encoding="utf-8"?>
<svg viewBox="0 0 500 500" width="500" height="500" xmlns="http://www.w3.org/2000/svg">
    <g transform="matrix(0.48896598815917974, 0, 0, -0.48896598815917974, 2.4411909943996193, 484.47241932857656)" fill="#000000" stroke="none" style="">
          <path d="M -19.68 -55.68 L 1097.033 -55.68 L 1097.033 1005.208 L -19.68 1005.208 L -19.68 -55.68 Z" fill="#FFF" style="transform-box: fill-box; transform-origin: 50% 50%;" transform="matrix(-1, 0, 0, -1, -0.000067, -0.000029)"/>
          <path d="M167 832 c-15 -17 -17 -55 -17 -339 0 -297 1 -321 18 -336 10 -10 27 -17 37 -17 10 0 81 62 160 140 l141 140 139 -140 c144 -144 166 -158 198 -122 15 17 17 55 17 339 0 297 -1 321 -18 336 -10 10 -27 17 -38 17 -11 0 -76 -56 -159 -140 l-140 -140 -140 140 c-144 144 -166 157 -198 122z m181 -255 l82 -82 -85 -85 -85 -85 0 168 c0 92 1 167 3 167 1 0 39 -37 85 -83z m402 -84 l0 -168 -85 85 -85 85 82 82 c46 46 84 83 85 83 2 0 3 -75 3 -167z"/>
        </g>
  </svg>