# Blender 4.0.2
# www.blender.org
mtllib lever.mtl
o SCP_Lever
v -1.564310 1.235704 -1.014179
v -1.564409 1.235714 -1.080780
v -1.541210 1.523104 -1.080780
v -1.540810 1.379424 -1.155781
v -1.541210 1.523104 -1.080780
v -1.541510 1.523094 -1.014179
v -1.564409 1.235714 -1.080780
v -1.565010 1.379424 -1.155781
v -1.540911 1.235714 -1.080780
v -1.540810 1.235704 -1.014179
v -1.540911 1.235714 -1.080780
v -1.564011 1.523104 -1.080780
v -1.564011 1.523094 -1.014179
v -1.564011 1.523104 -1.080780
v -1.565010 1.379424 -1.155781
v -1.564011 1.523104 -1.080780
v -1.564409 1.235714 -1.080780
v -1.564310 1.235704 -1.014179
v -1.564011 1.523094 -1.014179
v -1.540810 1.379424 -1.155781
v -1.540911 1.235714 -1.080780
v -1.541210 1.523104 -1.080780
v -1.541510 1.523094 -1.014179
v -1.540810 1.235704 -1.014179
v -0.930210 1.235704 -1.014179
v -0.930109 1.235714 -1.080780
v -0.953310 1.523104 -1.080780
v -0.953711 1.379424 -1.155781
v -0.953011 1.523094 -1.014179
v -0.953310 1.523104 -1.080780
v -0.930109 1.235714 -1.080780
v -0.929510 1.379424 -1.155781
v -0.953609 1.235714 -1.080780
v -0.953609 1.235714 -1.080780
v -0.953711 1.235704 -1.014179
v -0.930510 1.523104 -1.080780
v -0.930510 1.523094 -1.014179
v -0.930510 1.523104 -1.080780
v -0.929510 1.379424 -1.155781
v -0.930109 1.235714 -1.080780
v -0.930510 1.523104 -1.080780
v -0.930210 1.235704 -1.014179
v -0.930510 1.523094 -1.014179
v -0.953711 1.379424 -1.155781
v -0.953310 1.523104 -1.080780
v -0.953609 1.235714 -1.080780
v -0.953011 1.523094 -1.014179
v -0.953711 1.235704 -1.014179
v -1.543810 0.842704 -0.984478
v -1.527210 0.842714 -1.085480
v -1.543810 0.842714 -1.085480
v -1.527210 0.842704 -0.984478
v -1.502710 0.819964 -1.184677
v -1.518511 0.819964 -1.188080
v -1.518511 0.819964 -1.188080
v -1.502710 0.730294 -1.184780
v -1.518511 0.730294 -1.188080
v -1.518511 0.730294 -1.188080
v -1.527210 0.707514 -1.085480
v -1.543810 0.707514 -1.085480
v -1.527210 0.707494 -0.984577
v -1.543810 0.707494 -0.984577
v -1.543810 0.842714 -1.085480
v -1.543810 0.842704 -0.984478
v -1.518511 0.819964 -1.188080
v -1.562510 0.842704 -0.984478
v -1.579109 0.842714 -1.085480
v -1.579109 0.842704 -0.984478
v -1.562510 0.842714 -1.085480
v -1.603609 0.819964 -1.184677
v -1.587811 0.819964 -1.188080
v -1.587811 0.819964 -1.188080
v -1.603609 0.730294 -1.184780
v -1.587811 0.730294 -1.188080
v -1.587811 0.730294 -1.188080
v -1.579109 0.707514 -1.085480
v -1.562510 0.707514 -1.085480
v -1.579109 0.707494 -0.984577
v -1.562510 0.707494 -0.984577
v -1.562510 0.842714 -1.085480
v -1.562510 0.842704 -0.984478
v -1.587811 0.819964 -1.188080
v -0.950710 0.842704 -0.984478
v -0.967310 0.842714 -1.085480
v -0.967310 0.842704 -0.984478
v -0.950710 0.842714 -1.085480
v -0.991810 0.819964 -1.184677
v -0.976009 0.819964 -1.188080
v -0.976009 0.819964 -1.188080
v -0.991810 0.730294 -1.184780
v -0.976009 0.730294 -1.188080
v -0.976009 0.730294 -1.188080
v -0.967310 0.707514 -1.085480
v -0.950710 0.707514 -1.085480
v -0.967310 0.707494 -0.984577
v -0.950710 0.707494 -0.984577
v -0.950710 0.842714 -1.085480
v -0.950710 0.842704 -0.984478
v -0.976009 0.819964 -1.188080
v -0.932011 0.842704 -0.984478
v -0.915409 0.842714 -1.085480
v -0.932011 0.842714 -1.085480
v -0.915409 0.842704 -0.984478
v -0.890909 0.819964 -1.184677
v -0.906710 0.819964 -1.188080
v -0.906710 0.819964 -1.188080
v -0.890909 0.730294 -1.184780
v -0.906710 0.730294 -1.188080
v -0.906710 0.730294 -1.188080
v -0.915409 0.707514 -1.085480
v -0.932011 0.707514 -1.085480
v -0.915409 0.707494 -0.984577
v -0.932011 0.707494 -0.984577
v -0.932011 0.842714 -1.085480
v -0.932011 0.842704 -0.984478
v -0.906710 0.819964 -1.188080
v -1.563410 1.446944 -1.008377
v -1.563410 1.446974 -1.156578
v -1.563410 0.689214 -1.156677
v -0.934010 1.446944 -1.008377
v -0.934010 0.689214 -1.156677
v -0.934010 1.446974 -1.156578
v -1.617510 0.715884 -1.189278
v -0.879810 0.715844 -0.975979
v -0.879810 0.715884 -1.189278
v -1.617510 0.715844 -0.975979
v -1.617510 0.715844 -0.975979
v -0.879810 0.639854 -0.975979
v -0.879810 0.715844 -0.975979
v -1.617510 0.639854 -0.975979
v -1.617510 0.639894 -1.189278
v -1.502310 0.639884 -1.138180
v -1.456110 0.639884 -1.138180
v -1.041210 0.639884 -1.138180
v -0.995110 0.639884 -1.138180
v -0.879810 0.639894 -1.189278
v -0.879810 0.715884 -1.189278
v -0.879810 0.715844 -0.975979
v -1.617510 0.715844 -0.975979
v -1.041210 0.639864 -1.027981
v -1.456110 0.639864 -1.027981
v -0.995110 0.639864 -1.027981
v -0.995110 0.639884 -1.138180
v -1.039209 0.543294 -1.138180
v -1.041210 0.639884 -1.138180
v -1.041210 0.639884 -1.138180
v -1.039209 0.543294 -1.138180
v -1.039209 0.543274 -1.027981
v -1.502310 0.639864 -1.027981
v -1.458410 0.543964 -1.027981
v -1.456110 0.639864 -1.027981
v -1.500010 0.523824 -1.027981
v -1.456110 0.639864 -1.027981
v -1.458410 0.543964 -1.027981
v -1.458410 0.543984 -1.138180
v -1.502310 0.639884 -1.138180
v -1.500010 0.523824 -1.027981
v -1.502310 0.639864 -1.027981
v -1.039209 0.543274 -1.027981
v -1.101210 0.458424 -1.027981
v -0.997110 0.524514 -1.027981
v -0.997110 0.524514 -1.027981
v -1.101210 0.458444 -1.138180
v -0.997110 0.524534 -1.138180
v -1.458410 0.543984 -1.138180
v -1.396210 0.458444 -1.138180
v -1.500010 0.523844 -1.138180
v -1.500010 0.523844 -1.138180
v -1.396210 0.458424 -1.027981
v -1.119209 0.495254 -1.138180
v -1.378010 0.495224 -1.027981
v -1.119209 0.495224 -1.027981
v -1.378010 0.495254 -1.138180
v -1.119209 0.495224 -1.027981
v -1.378010 0.495254 -1.138180
v -1.617510 0.715884 -1.189278
v -1.545010 1.446974 -1.156578
v -1.563410 1.489374 -1.134678
v -1.563410 1.489354 -1.031178
v -1.563410 1.489374 -1.134678
v -1.545010 1.489374 -1.134678
v -1.545010 0.689194 -1.008480
v -1.545010 0.689214 -1.157578
v -1.545010 1.446944 -1.008377
v -1.545010 1.511664 -1.099277
v -1.563410 1.511664 -1.099277
v -1.545010 1.489354 -1.031178
v -1.545010 1.489374 -1.134678
v -0.952311 0.689194 -1.008480
v -0.934010 0.689194 -1.008480
v -0.952311 1.446944 -1.008377
v -0.952311 0.689214 -1.157578
v -0.952311 1.446944 -1.008377
v -0.952311 1.446974 -1.156578
v -1.502310 0.639864 -1.027981
v -1.502310 0.639884 -1.138180
v -1.456110 0.639884 -1.138180
v -0.995110 0.639864 -1.027981
v -1.041210 0.639864 -1.027981
v -0.995110 0.639864 -1.027981
v -1.041210 0.639864 -1.027981
v -1.456110 0.639884 -1.138180
v -0.995110 0.639884 -1.138180
v -0.997110 0.524534 -1.138180
v -0.934010 1.489374 -1.134678
v -0.934010 1.489354 -1.031178
v -0.934010 1.489374 -1.134678
v -0.952311 1.489374 -1.134678
v -1.563410 0.689194 -1.008480
v -0.952311 0.689194 -1.008480
v -0.952311 1.511664 -1.099277
v -0.934010 1.511664 -1.099277
v -0.952311 1.489354 -1.031178
v -0.952311 1.489374 -1.134678
v -1.378010 0.495224 -1.027981
v -1.119209 0.495254 -1.138180
v -0.952311 1.511664 -1.066479
v -0.934010 1.489354 -1.031178
v -0.934010 1.511664 -1.066479
v -0.952311 1.489354 -1.031178
v -0.934010 1.489354 -1.031178
v -1.545010 1.511664 -1.066479
v -1.563410 1.489354 -1.031178
v -1.545010 1.511664 -1.066479
v -1.563410 1.511664 -1.066479
v -1.545010 1.489354 -1.031178
v -1.545010 1.489354 -1.031178
v -1.563410 1.489354 -1.031178
v -0.952311 1.489354 -1.031178
v -0.952311 1.511664 -1.066479
v -1.563410 1.511664 -1.099277
v -1.545010 1.446944 -1.008377
v -0.934010 1.511664 -1.099277
v -1.545010 1.511664 -1.099277
v -1.563410 1.511664 -1.066479
v -1.545010 0.689194 -1.008480
v -0.934010 1.511664 -1.066479
v -0.952311 1.511664 -1.099277
v -0.879810 0.639894 -1.189278
v -1.617510 0.715884 -1.189278
v -0.879810 0.715884 -1.189278
v -1.617510 0.639894 -1.189278
v -0.995110 0.639884 -1.136379
v -1.041210 0.639884 -1.136379
v -1.456110 0.639884 -1.136379
v -0.934010 0.689214 -1.156677
v -0.952311 0.689214 -1.155781
v -0.952311 1.446974 -1.156578
v -1.502310 0.639884 -1.136379
v -0.934010 1.446974 -1.156578
v -0.952311 1.489374 -1.132877
v -0.934010 1.489374 -1.132877
v -1.563410 1.489374 -1.132877
v -1.545010 1.489374 -1.132877
v -1.563410 1.446974 -1.156578
v -1.545010 1.446974 -1.156578
v -1.563410 0.689214 -1.156677
v -1.545010 0.689214 -1.155781
vn 0.9999 -0.0014 -0.0107
vn 1.0000 -0.0014 -0.0015
vn 1.0000 -0.0010 -0.0000
vn -1.0000 -0.0010 -0.0033
vn -1.0000 -0.0010 -0.0045
vn -1.0000 -0.0024 0.0015
vn -0.0000 -0.0000 -1.0000
vn -0.9999 -0.0014 -0.0107
vn -1.0000 -0.0010 -0.0000
vn -1.0000 -0.0014 -0.0015
vn 1.0000 -0.0010 -0.0033
vn 1.0000 -0.0024 0.0015
vn 1.0000 -0.0010 -0.0045
vn -0.0000 1.0000 0.0001
vn 0.0443 0.9776 -0.2059
vn -0.0000 0.9747 -0.2235
vn 0.2049 -0.0000 -0.9788
vn 0.2106 0.0011 -0.9776
vn -0.0000 -0.9762 -0.2167
vn 0.0445 -0.9761 -0.2129
vn -0.0000 -1.0000 -0.0002
vn 1.0000 -0.0000 -0.0000
vn 0.9708 -0.0003 0.2399
vn 0.9709 -0.0000 0.2396
vn -1.0000 -0.0000 -0.0000
vn -0.9709 -0.0000 -0.2394
vn -0.0443 0.9776 -0.2058
vn -0.2106 0.0011 -0.9776
vn -0.2049 -0.0000 -0.9788
vn -0.0445 -0.9761 -0.2129
vn -0.9709 -0.0000 0.2396
vn -0.9708 -0.0003 0.2399
vn 0.9709 -0.0000 -0.2394
vn -0.0000 0.9747 -0.2236
vn -0.9708 -0.0002 0.2399
vn -0.0000 -0.9762 -0.2168
vn -0.0000 1.0000 0.0002
vn -0.0000 -0.0000 1.0000
vn -0.9998 -0.0207 -0.0000
vn 0.9997 -0.0240 -0.0000
vn -0.9998 -0.0198 -0.0000
vn 0.5360 -0.8442 -0.0002
vn -0.5331 -0.8461 -0.0002
vn -0.0000 1.0000 0.0003
vn -0.0000 -1.0000 -0.0003
vn -0.0000 0.4589 -0.8885
vn -1.0000 0.0001 -0.0000
vn -0.0000 0.8462 -0.5328
vn 1.0000 -0.0001 -0.0000
vn -0.0000 -0.0001 1.0000
vn 0.9998 -0.0173 -0.0000
vn 0.0001 -0.0000 1.0000
vn 0.9998 -0.0174 -0.0000
vn -0.0000 0.4588 -0.8885
vn 1.0000 0.0001 -0.0000
vn -0.0000 0.4590 -0.8884
vn -0.0000 0.8463 -0.5327
vn -1.0000 -0.0001 -0.0000
vn 0.5184 0.8551 0.0002
vn -0.0001 -0.0000 -1.0000
vn -0.5148 0.8573 0.0002
vn 0.5183 0.8552 0.0002
vn -0.5149 0.8573 0.0002
vn -0.0000 0.8454 0.5342
vn -0.0000 0.4735 0.8808
vn -0.0000 0.8453 0.5343
vn -0.0000 0.4736 0.8807
vn -0.0000 0.8462 -0.5329
vn 1.0000 -0.0002 -0.0000
vn -0.0000 1.0000 -0.0000
vn -0.0492 -0.0011 -0.9988
vn -0.0000 0.4879 -0.8729
vn -0.0000 0.4880 -0.8728
vn -0.0000 0.0001 -1.0000
vn -0.0000 0.4880 -0.8729
vn 0.0489 -0.0011 -0.9988
vt 0.830873 -0.749584
vt 0.871193 -0.826141
vt 0.870643 -0.672740
vt 0.906185 -0.672613
vt 0.906734 -0.826014
vt 0.994317 -0.749283
vt 0.954271 -0.672582
vt 0.954271 -0.825984
vt 0.918729 -0.825984
vt 0.918729 -0.672582
vt 0.029913 -0.680913
vt 0.043069 -0.598817
vt 0.029545 -0.598841
vt 0.043253 -0.680890
vt 0.042889 -0.518241
vt 0.029880 -0.518405
vt 0.042796 -0.505407
vt 0.153415 -0.517552
vt 0.153349 -0.504717
vt 0.166464 -0.516816
vt 0.153158 -0.599046
vt 0.166636 -0.599469
vt 0.153048 -0.681120
vt 0.166432 -0.681542
vt 0.276571 -0.599917
vt 0.276381 -0.681990
vt 0.277116 -0.516492
vt 0.776846 -0.518974
vt 0.877310 -0.518974
vt 0.877310 -0.008356
vt 0.261893 -0.150684
vt 0.040205 -0.215073
vt 0.040205 -0.150684
vt 0.261893 -0.215073
vt 0.261893 -0.040620
vt 0.040205 -0.063457
vt 0.040205 -0.040620
vt 0.261893 -0.063457
vt 0.261893 -0.127846
vt 0.227281 -0.112208
vt 0.213372 -0.112208
vt 0.088704 -0.112208
vt 0.074838 -0.112208
vt 0.040205 -0.127846
vt 0.017367 -0.127846
vt 0.017367 -0.063457
vt 0.284730 -0.063457
vt 0.088704 -0.079096
vt 0.213372 -0.079096
vt 0.074838 -0.079096
vt 0.239301 -0.224761
vt 0.223350 -0.259662
vt 0.222630 -0.224761
vt 0.022338 -0.419668
vt 0.063929 -0.419668
vt 0.063929 -0.467112
vt 0.056008 -0.395700
vt 0.071898 -0.361048
vt 0.072732 -0.395700
vt 0.056841 -0.353769
vt 0.273066 -0.467113
vt 0.231772 -0.467113
vt 0.231773 -0.419669
vt 0.020538 -0.290047
vt 0.058120 -0.329972
vt 0.020800 -0.329859
vt 0.223350 -0.360799
vt 0.200943 -0.330137
vt 0.238581 -0.354018
vt 0.239394 -0.330137
vt 0.200943 -0.290324
vt 0.239394 -0.290324
vt 0.071898 -0.259413
vt 0.094366 -0.290324
vt 0.056841 -0.266692
vt 0.058217 -0.290159
vt 0.094366 -0.330137
vt 0.093029 -0.419668
vt 0.204478 -0.467113
vt 0.093029 -0.467112
vt 0.204479 -0.419669
vt 0.194443 -0.343437
vt 0.100918 -0.277024
vt 0.284730 -0.127846
vt 0.889679 -0.518974
vt 0.877310 -0.547547
vt 0.792209 -0.547547
vt 0.861946 -0.547547
vt 0.889679 -0.547547
vt 0.990142 -0.008356
vt 0.889679 -0.008356
vt 0.990142 -0.518974
vt 0.889678 -0.571353
vt 0.877309 -0.571352
vt 0.974779 -0.547547
vt 0.905042 -0.547547
vt 0.764477 -0.008356
vt 0.776846 -0.008356
vt 0.764477 -0.518974
vt 0.227281 -0.079096
vt 0.056008 -0.224760
vt 0.072731 -0.224761
vt 0.239301 -0.395700
vt 0.222630 -0.395700
vt 0.281076 -0.330137
vt 0.022338 -0.467112
vt 0.273067 -0.419669
vt 0.281076 -0.290323
vt 0.238581 -0.266443
vt 0.100918 -0.343437
vt 0.194443 -0.277024
vt 0.889678 -0.593479
vt 0.877308 -0.617284
vt 0.877308 -0.593479
vt 0.764477 -0.547547
vt 0.776846 -0.547547
vt 0.950974 -0.562575
vt 0.889677 -0.617284
vt 0.838141 -0.562575
vt 0.928847 -0.562575
vt 0.816014 -0.562575
s 0
usemtl Meshesleverbase1Mtl.001
f 15/1/1 16/2/1 17/3/1
f 16/2/2 18/4/2 17/3/2
f 16/2/3 19/5/3 18/4/3
f 20/6/4 21/7/4 22/8/4
f 21/7/5 23/9/5 22/8/5
f 21/7/6 24/10/6 23/9/6
f 19/5/7 24/10/7 18/4/7
f 19/5/7 23/9/7 24/10/7
f 39/1/8 40/3/8 41/2/8
f 41/2/9 42/4/9 43/5/9
f 41/2/10 40/3/10 42/4/10
f 44/6/11 45/8/11 46/7/11
f 46/7/12 47/9/12 48/10/12
f 46/7/13 45/8/13 47/9/13
f 43/5/7 48/10/7 47/9/7
f 43/5/7 42/4/7 48/10/7
f 49/11/14 50/12/14 51/13/14
f 49/11/14 52/14/14 50/12/14
f 51/13/15 53/15/15 54/16/15
f 51/13/16 50/12/16 53/15/16
f 55/17/17 56/18/17 57/19/17
f 55/17/18 53/15/18 56/18/18
f 58/20/19 59/21/19 60/22/19
f 58/20/20 56/18/20 59/21/20
f 60/22/21 61/23/21 62/24/21
f 60/22/21 59/21/21 61/23/21
f 52/14/22 59/21/22 50/12/22
f 52/14/22 61/23/22 59/21/22
f 50/12/23 56/18/23 53/15/23
f 50/12/24 59/21/24 56/18/24
f 62/24/25 63/25/25 60/22/25
f 62/24/25 64/26/25 63/25/25
f 60/22/26 65/27/26 58/20/26
f 60/22/26 63/25/26 65/27/26
f 66/11/14 67/12/14 68/14/14
f 66/11/14 69/13/14 67/12/14
f 69/13/16 70/15/16 67/12/16
f 69/13/27 71/16/27 70/15/27
f 72/17/28 73/18/28 70/15/28
f 72/17/29 74/19/29 73/18/29
f 75/20/30 76/21/30 73/18/30
f 75/20/19 77/22/19 76/21/19
f 77/22/21 78/23/21 76/21/21
f 77/22/21 79/24/21 78/23/21
f 68/14/25 76/21/25 78/23/25
f 68/14/25 67/12/25 76/21/25
f 67/12/31 73/18/31 76/21/31
f 67/12/32 70/15/32 73/18/32
f 79/24/22 80/25/22 81/26/22
f 79/24/22 77/22/22 80/25/22
f 77/22/33 82/27/33 80/25/33
f 77/22/33 75/20/33 82/27/33
f 83/11/14 84/12/14 85/14/14
f 83/11/14 86/13/14 84/12/14
f 86/13/34 87/15/34 84/12/34
f 86/13/27 88/16/27 87/15/27
f 89/17/28 90/18/28 87/15/28
f 89/17/29 91/19/29 90/18/29
f 92/20/30 93/21/30 90/18/30
f 92/20/19 94/22/19 93/21/19
f 94/22/21 95/23/21 93/21/21
f 94/22/21 96/24/21 95/23/21
f 85/14/25 93/21/25 95/23/25
f 85/14/25 84/12/25 93/21/25
f 84/12/31 90/18/31 93/21/31
f 84/12/35 87/15/35 90/18/35
f 96/24/22 97/25/22 98/26/22
f 96/24/22 94/22/22 97/25/22
f 94/22/33 99/27/33 97/25/33
f 94/22/33 92/20/33 99/27/33
f 100/11/14 101/12/14 102/13/14
f 100/11/14 103/14/14 101/12/14
f 102/13/15 104/15/15 105/16/15
f 102/13/16 101/12/16 104/15/16
f 106/17/17 107/18/17 108/19/17
f 106/17/18 104/15/18 107/18/18
f 109/20/36 110/21/36 111/22/36
f 109/20/20 107/18/20 110/21/20
f 111/22/21 112/23/21 113/24/21
f 111/22/21 110/21/21 112/23/21
f 103/14/22 110/21/22 101/12/22
f 103/14/22 112/23/22 110/21/22
f 101/12/23 107/18/23 104/15/23
f 101/12/24 110/21/24 107/18/24
f 113/24/25 114/25/25 111/22/25
f 113/24/25 115/26/25 114/25/25
f 111/22/26 116/27/26 109/20/26
f 111/22/26 114/25/26 116/27/26
f 117/28/25 118/29/25 119/30/25
f 120/28/22 121/30/22 122/29/22
f 123/31/37 124/32/37 125/33/37
f 123/31/37 126/34/37 124/32/37
f 127/35/38 128/36/38 129/37/38
f 127/35/38 130/38/38 128/36/38
f 130/38/21 131/39/21 132/40/21
f 131/39/21 133/41/21 132/40/21
f 131/39/21 134/42/21 133/41/21
f 131/39/21 135/43/21 134/42/21
f 131/39/21 136/44/21 135/43/21
f 137/45/22 138/46/22 128/36/22
f 131/39/25 130/38/25 139/47/25
f 133/41/21 140/48/21 141/49/21
f 133/41/21 134/42/21 140/48/21
f 142/50/21 136/44/21 128/36/21
f 142/50/21 135/43/21 136/44/21
f 143/51/7 144/52/7 145/53/7
f 146/54/39 147/55/39 148/56/39
f 149/57/38 150/58/38 151/59/38
f 149/57/38 152/60/38 150/58/38
f 153/61/40 154/62/40 155/63/40
f 156/64/41 157/65/41 158/66/41
f 159/67/38 160/68/38 161/69/38
f 162/70/42 163/71/42 164/72/42
f 162/70/42 160/68/42 163/71/42
f 165/73/7 166/74/7 167/75/7
f 168/76/43 169/77/43 157/65/43
f 168/76/43 166/74/43 169/77/43
f 170/78/44 171/79/44 172/80/44
f 170/78/44 173/81/44 171/79/44
f 174/82/38 169/77/38 160/68/38
f 163/71/7 166/74/7 175/83/7
f 130/38/21 142/50/21 128/36/21
f 130/38/45 140/48/45 142/50/45
f 130/38/21 141/49/21 140/48/21
f 176/84/25 131/39/25 139/47/25
f 177/85/46 118/29/46 178/86/46
f 179/87/47 180/88/47 118/29/47
f 181/89/46 177/85/46 178/86/46
f 182/90/22 183/91/22 184/92/22
f 185/93/48 181/89/48 186/94/48
f 187/95/49 177/85/49 188/96/49
f 189/97/50 190/98/50 191/99/50
f 192/91/25 193/92/25 194/85/25
f 177/85/22 184/92/22 183/91/22
f 160/68/21 169/77/21 166/74/21
f 160/68/21 166/74/21 163/71/21
f 121/30/22 120/28/22 190/98/22
f 195/100/21 141/49/21 130/38/21
f 195/100/21 130/38/21 132/40/21
f 196/101/7 197/102/7 167/75/7
f 156/64/41 168/76/41 157/65/41
f 198/103/38 199/104/38 161/69/38
f 200/105/51 162/70/51 164/72/51
f 201/106/39 146/54/39 148/56/39
f 199/104/52 159/67/52 161/69/52
f 202/107/40 153/61/40 155/63/40
f 197/102/7 165/73/7 167/75/7
f 137/45/22 128/36/22 136/44/22
f 203/108/53 200/105/53 164/72/53
f 143/51/7 204/109/7 144/52/7
f 194/85/54 205/86/54 122/29/54
f 206/87/55 122/29/55 207/88/55
f 208/89/56 205/86/56 194/85/56
f 209/98/25 117/28/25 119/30/25
f 210/90/25 193/92/25 192/91/25
f 211/93/57 212/94/57 208/89/57
f 213/95/58 214/96/58 194/85/58
f 150/58/38 152/60/38 215/110/38
f 154/62/59 171/79/59 173/81/59
f 144/52/60 204/109/60 216/111/60
f 147/55/61 170/78/61 172/80/61
f 155/63/62 154/62/62 173/81/62
f 165/73/7 175/83/7 166/74/7
f 148/56/63 147/55/63 172/80/63
f 159/67/38 174/82/38 160/68/38
f 215/110/38 152/60/38 169/77/38
f 215/110/38 169/77/38 174/82/38
f 216/111/7 204/109/7 163/71/7
f 216/111/7 163/71/7 175/83/7
f 120/28/22 122/29/22 206/87/22
f 217/112/64 218/113/64 219/114/64
f 213/95/25 194/85/25 193/92/25
f 220/115/65 120/28/65 221/116/65
f 187/95/22 188/96/22 222/117/22
f 223/113/66 224/112/66 225/114/66
f 226/118/64 224/112/64 223/113/64
f 117/28/25 179/87/25 118/29/25
f 227/115/67 228/116/67 117/28/67
f 187/95/22 184/92/22 177/85/22
f 229/118/64 218/113/64 217/112/64
f 213/95/25 230/117/25 214/96/25
f 186/94/48 181/89/48 178/86/48
f 231/119/25 180/88/25 179/87/25
f 191/99/50 190/98/50 120/28/50
f 191/99/67 120/28/67 220/115/67
f 232/99/65 227/115/65 117/28/65
f 232/99/50 117/28/50 209/98/50
f 205/86/68 208/89/68 212/94/68
f 207/88/69 233/119/69 206/87/69
f 222/117/22 188/96/22 234/120/22
f 224/112/70 185/93/70 225/114/70
f 231/119/25 179/87/25 235/121/25
f 186/94/70 225/114/70 185/93/70
f 236/97/50 232/99/50 209/98/50
f 212/94/70 211/93/70 219/114/70
f 233/119/22 237/121/22 206/87/22
f 217/112/70 219/114/70 211/93/70
f 230/117/25 238/120/25 214/96/25
f 239/36/7 240/35/7 241/37/7
f 242/38/7 240/35/7 239/36/7
f 243/50/21 242/38/21 239/36/21
f 244/48/21 242/38/21 243/50/21
f 245/49/21 242/38/21 244/48/21
f 246/98/71 247/97/71 248/99/71
f 245/49/21 249/100/21 242/38/21
f 250/28/72 251/115/72 252/116/72
f 253/116/73 254/115/73 255/28/73
f 246/98/74 248/99/74 250/28/74
f 250/28/75 248/99/75 251/115/75
f 254/115/72 256/99/72 255/28/72
f 255/28/74 256/99/74 257/98/74
f 256/99/76 258/97/76 257/98/76
l 1 2
l 5 6
l 1 10
l 34 35
l 7 8
l 25 26
l 29 30
l 25 35
l 29 37
l 13 14
l 3 4
l 8 12
l 31 32
l 37 38
l 4 9
l 27 28
l 32 36
l 28 33
l 6 13
l 10 11
