# Blender 4.0.2
# www.blender.org
mtllib plate.mtl
o SCP_Lever
v -3.315987 2.050053 -0.215424
v -2.026285 2.050083 -0.381226
v -2.026285 2.050053 -0.215424
v -3.315987 2.050083 -0.381226
v -2.172586 2.288963 -0.546925
v -3.169685 2.288963 -0.546925
v -2.172586 3.916823 -0.546623
v -3.169685 3.916823 -0.546623
v -2.026285 4.155643 -0.380825
v -3.315987 4.155643 -0.380825
v -2.026285 4.155612 -0.215027
v -3.315987 4.155612 -0.215027
v -2.026285 2.050053 -0.215424
v -2.026285 4.155612 -0.215027
v -3.315987 4.155612 -0.215027
v -3.315987 2.050053 -0.215424
v -2.988186 2.959203 -0.572025
v -3.062386 2.959213 -0.638424
v -2.988285 2.959213 -0.638626
v -2.890285 3.102923 -0.712326
v -2.965086 3.246603 -0.638626
v -2.890285 3.246603 -0.638325
v -2.964685 3.102923 -0.713627
v -2.890285 3.246603 -0.638325
v -2.965086 3.246603 -0.638626
v -2.965385 3.246593 -0.572025
v -2.988285 2.959213 -0.638626
v -3.062386 3.102923 -0.712326
v -2.988886 3.102923 -0.713627
v -2.890285 2.959213 -0.638424
v -2.964787 2.959213 -0.638626
v -2.964685 2.959203 -0.572025
v -2.964787 2.959213 -0.638626
v -3.062386 3.246603 -0.638325
v -2.987886 3.246603 -0.638626
v -2.987886 3.246593 -0.572025
v -2.987886 3.246603 -0.638626
v -2.890285 3.246583 -0.505424
v -2.890285 3.102883 -0.505424
v -2.890285 2.959193 -0.505424
v -2.964685 2.959193 -0.505424
v -2.988085 2.959193 -0.505424
v -3.062386 2.959193 -0.505424
v -3.062386 3.102883 -0.505424
v -3.062386 3.246583 -0.505424
v -2.987886 3.246583 -0.505424
v -2.965685 3.246583 -0.505424
v -2.890285 3.246583 -0.505424
v -2.988886 3.102923 -0.713627
v -2.987886 3.246603 -0.638626
v -2.988285 2.959213 -0.638626
v -2.988186 2.959203 -0.572025
v -2.987886 3.246593 -0.572025
v -2.964685 3.102923 -0.713627
v -2.964787 2.959213 -0.638626
v -2.965086 3.246603 -0.638626
v -2.965385 3.246593 -0.572025
v -2.964685 2.959203 -0.572025
v -2.354086 2.959203 -0.572025
v -2.353985 2.959213 -0.638626
v -2.279886 2.959213 -0.638424
v -2.451986 3.102923 -0.714024
v -2.377186 3.246603 -0.638626
v -2.377586 3.102923 -0.713627
v -2.451986 3.246603 -0.638325
v -2.451986 3.246603 -0.638325
v -2.376886 3.246593 -0.572025
v -2.377186 3.246603 -0.638626
v -2.353985 2.959213 -0.638626
v -2.279886 3.102923 -0.714024
v -2.353386 3.102923 -0.713627
v -2.451986 2.959213 -0.638424
v -2.377485 2.959213 -0.638626
v -2.377485 2.959213 -0.638626
v -2.377586 2.959203 -0.572025
v -2.279886 3.246603 -0.638325
v -2.354385 3.246603 -0.638626
v -2.354385 3.246593 -0.572025
v -2.354385 3.246603 -0.638626
v -2.451986 3.246583 -0.505424
v -2.451986 3.102883 -0.505424
v -2.451986 2.959193 -0.505424
v -2.377586 2.959193 -0.505424
v -2.354185 2.959193 -0.505424
v -2.279886 2.959193 -0.505424
v -2.279886 3.102883 -0.505424
v -2.279886 3.246583 -0.505424
v -2.354385 3.246583 -0.505424
v -2.376585 3.246583 -0.505424
v -2.451986 3.246583 -0.505424
v -2.353386 3.102923 -0.713627
v -2.353985 2.959213 -0.638626
v -2.354385 3.246603 -0.638626
v -2.354086 2.959203 -0.572025
v -2.354385 3.246593 -0.572025
v -2.377586 3.102923 -0.713627
v -2.377186 3.246603 -0.638626
v -2.377485 2.959213 -0.638626
v -2.376886 3.246593 -0.572025
v -2.377586 2.959203 -0.572025
v -2.967686 3.639593 -0.542126
v -2.951086 3.639613 -0.643124
v -2.951086 3.639593 -0.542126
v -2.967686 3.639613 -0.643124
v -2.926586 3.662393 -0.742325
v -2.942387 3.662393 -0.745724
v -2.942387 3.662393 -0.745724
v -2.926586 3.752063 -0.742325
v -2.942387 3.752063 -0.745625
v -2.942387 3.752063 -0.745625
v -2.951086 3.774813 -0.643024
v -2.967686 3.774813 -0.643024
v -2.951086 3.774803 -0.542126
v -2.967686 3.774803 -0.542126
v -2.967686 3.639613 -0.643124
v -2.967686 3.639593 -0.542126
v -2.942387 3.662393 -0.745724
v -2.986385 3.639593 -0.542126
v -3.002985 3.639613 -0.643124
v -2.986385 3.639613 -0.643124
v -3.002985 3.639593 -0.542126
v -3.027485 3.662393 -0.742325
v -3.011686 3.662393 -0.745724
v -3.011686 3.662393 -0.745724
v -3.027485 3.752063 -0.742325
v -3.011686 3.752063 -0.745625
v -3.011686 3.752063 -0.745625
v -3.002985 3.774813 -0.643024
v -2.986385 3.774813 -0.643024
v -3.002985 3.774803 -0.542126
v -2.986385 3.774803 -0.542126
v -2.986385 3.639613 -0.643124
v -2.986385 3.639593 -0.542126
v -3.011686 3.662393 -0.745724
v -2.374586 3.639593 -0.542126
v -2.391186 3.639613 -0.643124
v -2.374586 3.639613 -0.643124
v -2.391186 3.639593 -0.542126
v -2.415686 3.662393 -0.742325
v -2.399885 3.662393 -0.745724
v -2.399885 3.662393 -0.745724
v -2.415686 3.752063 -0.742325
v -2.399885 3.752063 -0.745625
v -2.399885 3.752063 -0.745625
v -2.391186 3.774813 -0.643024
v -2.374586 3.774813 -0.643024
v -2.391186 3.774803 -0.542126
v -2.374586 3.774803 -0.542126
v -2.374586 3.639613 -0.643124
v -2.374586 3.639593 -0.542126
v -2.399885 3.662393 -0.745724
v -2.355886 3.639593 -0.542126
v -2.339285 3.639613 -0.643124
v -2.339285 3.639593 -0.542126
v -2.355886 3.639613 -0.643124
v -2.314785 3.662393 -0.742325
v -2.330585 3.662393 -0.745724
v -2.330585 3.662393 -0.745724
v -2.314785 3.752063 -0.742325
v -2.330585 3.752063 -0.745625
v -2.330585 3.752063 -0.745625
v -2.339285 3.774813 -0.643024
v -2.355886 3.774813 -0.643024
v -2.339285 3.774803 -0.542126
v -2.355886 3.774803 -0.542126
v -2.355886 3.639613 -0.643124
v -2.355886 3.639593 -0.542126
v -2.330585 3.662393 -0.745724
v -2.987286 3.170443 -0.566223
v -2.987286 3.170473 -0.714424
v -2.357885 3.170443 -0.566223
v -2.357885 3.170473 -0.714424
v -2.303686 2.439343 -0.533825
v -3.041386 2.439343 -0.533825
v -3.041386 2.439343 -0.533825
v -2.303686 2.363353 -0.533825
v -2.303686 2.439343 -0.533825
v -3.041386 2.363353 -0.533825
v -2.303686 2.439343 -0.533825
v -3.041386 2.439343 -0.533825
v -2.968885 3.170473 -0.714424
v -2.987286 3.212873 -0.692524
v -2.987286 3.212853 -0.589024
v -2.987286 3.212873 -0.692524
v -2.968885 3.212873 -0.692524
v -2.968885 3.170443 -0.566223
v -2.968885 3.235163 -0.657124
v -2.987286 3.235163 -0.657124
v -2.968885 3.212853 -0.589024
v -2.968885 3.212873 -0.692524
v -2.376186 3.170443 -0.566223
v -2.376186 3.170443 -0.566223
v -2.376186 3.170473 -0.714424
v -2.357885 3.212873 -0.692524
v -2.357885 3.212853 -0.589024
v -2.357885 3.212873 -0.692524
v -2.376186 3.212873 -0.692524
v -2.376186 3.235163 -0.657124
v -2.357885 3.235163 -0.657124
v -2.376186 3.212853 -0.589024
v -2.376186 3.212873 -0.692524
v -2.376186 3.235163 -0.624325
v -2.357885 3.212853 -0.589024
v -2.357885 3.235163 -0.624325
v -2.376186 3.212853 -0.589024
v -2.357885 3.212853 -0.589024
v -2.968885 3.235163 -0.624325
v -2.987286 3.212853 -0.589024
v -2.968885 3.235163 -0.624325
v -2.987286 3.235163 -0.624325
v -2.968885 3.212853 -0.589024
v -2.968885 3.212853 -0.589024
v -2.987286 3.212853 -0.589024
v -2.376186 3.212853 -0.589024
v -2.376186 3.235163 -0.624325
v -2.987286 3.235163 -0.657124
v -2.968885 3.170443 -0.566223
v -2.357885 3.235163 -0.657124
v -2.968885 3.235163 -0.657124
v -2.987286 3.235163 -0.624325
v -2.357885 3.235163 -0.624325
v -2.376186 3.235163 -0.657124
v -2.376186 3.170473 -0.714424
v -2.357885 3.170473 -0.714424
v -2.376186 3.212873 -0.690723
v -2.357885 3.212873 -0.690723
v -2.987286 3.212873 -0.690723
v -2.968885 3.212873 -0.690723
v -2.987286 3.170473 -0.714424
v -2.968885 3.170473 -0.714424
vn -0.0000 -1.0000 -0.0002
vn -0.0000 -0.5700 -0.8217
vn -0.0000 0.0002 -1.0000
vn -0.0000 0.5703 -0.8215
vn -0.0000 0.5703 -0.8214
vn -0.0000 1.0000 0.0002
vn 1.0000 -0.0000 -0.0000
vn 0.7497 0.0001 -0.6617
vn 0.7497 0.0001 -0.6618
vn -1.0000 -0.0000 -0.0000
vn -0.7497 0.0001 -0.6618
vn -0.7497 0.0001 -0.6617
vn -0.0000 -1.0000 -0.0001
vn 0.0035 0.4579 -0.8890
vn 0.0156 0.4627 -0.8864
vn -0.0000 1.0000 0.0001
vn -0.0158 -0.4626 -0.8864
vn -0.0025 -0.4573 -0.8893
vn 0.0156 -0.4573 -0.8892
vn 0.0024 -0.4627 -0.8865
vn -0.0036 0.4627 -0.8865
vn -0.0157 0.4578 -0.8889
vn 0.9999 -0.0014 -0.0107
vn 1.0000 -0.0014 -0.0015
vn 1.0000 -0.0010 -0.0000
vn -1.0000 -0.0010 -0.0033
vn -1.0000 -0.0010 -0.0045
vn -1.0000 -0.0024 0.0015
vn -0.0000 -0.0000 -1.0000
vn 0.0047 0.4627 -0.8865
vn -0.0036 0.4661 -0.8847
vn 0.0025 -0.4656 -0.8850
vn -0.0048 -0.4626 -0.8865
vn -0.0024 -0.4627 -0.8865
vn 0.0047 -0.4656 -0.8850
vn -0.0047 0.4661 -0.8847
vn 0.0036 0.4628 -0.8865
vn -0.9999 -0.0014 -0.0107
vn -1.0000 -0.0010 -0.0000
vn -1.0000 -0.0014 -0.0015
vn 1.0000 -0.0010 -0.0033
vn 1.0000 -0.0024 0.0015
vn 1.0000 -0.0010 -0.0045
vn -0.0000 -0.9746 -0.2238
vn 0.0444 -0.9775 -0.2061
vn 0.2103 -0.0000 -0.9776
vn 0.2046 0.0011 -0.9788
vn 0.0444 0.9761 -0.2127
vn -0.0000 0.9763 -0.2165
vn 0.9709 -0.0002 0.2396
vn 0.9708 -0.0000 0.2398
vn -0.9709 0.0002 -0.2394
vn -0.9709 0.0003 -0.2395
vn -0.0444 -0.9775 -0.2061
vn -0.2046 0.0011 -0.9788
vn -0.2103 -0.0000 -0.9776
vn -0.0444 0.9761 -0.2126
vn -0.9708 -0.0000 0.2398
vn -0.9709 -0.0002 0.2396
vn 0.9709 0.0003 -0.2395
vn 0.9709 0.0002 -0.2394
vn -0.0444 0.9761 -0.2127
vn 0.9709 0.0002 -0.2395
vn -0.0000 -0.9746 -0.2239
vn -0.0000 -0.0000 1.0000
vn -0.0000 0.4589 -0.8885
vn -1.0000 0.0001 -0.0000
vn -0.0000 0.8462 -0.5328
vn 1.0000 -0.0001 -0.0000
vn -0.0000 0.4588 -0.8885
vn 1.0000 0.0001 -0.0000
vn -0.0000 0.4590 -0.8884
vn -0.0000 0.8463 -0.5327
vn -1.0000 -0.0001 -0.0000
vn -0.0000 0.8454 0.5342
vn -0.0000 0.4735 0.8808
vn -0.0000 0.8453 0.5343
vn -0.0000 0.4736 0.8807
vn -0.0000 0.8462 -0.5329
vn 1.0000 -0.0002 -0.0000
vn -0.0000 1.0000 -0.0000
vn -0.0000 0.4879 -0.8729
vn -0.0000 0.4880 -0.8728
vn -0.0000 0.4880 -0.8729
vt 0.347681 -0.678749
vt 0.698768 -0.641909
vt 0.698768 -0.678749
vt 0.347681 -0.641909
vt 0.668351 -0.585179
vt 0.387507 -0.585179
vt 0.668351 -0.138736
vt 0.387507 -0.138736
vt 0.698768 -0.072061
vt 0.347681 -0.072061
vt 0.698768 -0.026934
vt 0.347681 -0.026934
vt 0.743895 -0.643566
vt 0.743895 -0.070404
vt 0.302554 -0.070404
vt 0.302554 -0.643566
vt 0.430305 -0.921277
vt 0.507869 -0.850763
vt 0.430396 -0.852709
vt 0.181812 -0.785000
vt 0.006187 -0.780293
vt 0.033243 -0.850765
vt 0.179239 -0.696118
vt 0.982881 -0.848108
vt 0.901618 -0.850749
vt 0.901882 -0.919317
vt 0.479728 -0.780977
vt 0.654654 -0.784157
vt 0.654655 -0.696124
vt 0.329033 -0.850555
vt 0.353675 -0.779390
vt 0.406104 -0.921278
vt 0.406146 -0.852709
vt 0.801444 -0.851318
vt 0.829787 -0.780582
vt 0.878742 -0.919515
vt 0.878174 -0.850950
vt 0.033499 -0.989848
vt 0.181473 -0.989847
vt 0.329447 -0.989846
vt 0.406063 -0.989846
vt 0.430215 -0.989846
vt 0.506680 -0.989846
vt 0.654654 -0.989846
vt 0.802623 -0.989291
vt 0.879311 -0.988081
vt 0.902146 -0.987886
vt 0.979846 -0.987222
vt 0.830873 -0.749584
vt 0.871193 -0.826141
vt 0.870643 -0.672740
vt 0.906185 -0.672613
vt 0.906734 -0.826014
vt 0.994317 -0.749283
vt 0.954271 -0.672582
vt 0.954271 -0.825984
vt 0.918729 -0.825984
vt 0.918729 -0.672582
vt 0.029913 -0.680913
vt 0.043069 -0.598817
vt 0.043253 -0.680890
vt 0.029545 -0.598841
vt 0.042889 -0.518241
vt 0.029880 -0.518405
vt 0.042796 -0.505407
vt 0.153415 -0.517552
vt 0.153349 -0.504717
vt 0.166464 -0.516816
vt 0.153158 -0.599046
vt 0.166636 -0.599469
vt 0.153048 -0.681120
vt 0.166432 -0.681542
vt 0.276571 -0.599917
vt 0.276381 -0.681990
vt 0.277116 -0.516492
vt 0.261893 -0.040620
vt 0.040205 -0.063457
vt 0.040205 -0.040620
vt 0.261893 -0.063457
vt 0.889679 -0.518974
vt 0.877310 -0.518974
vt 0.877310 -0.547547
vt 0.792209 -0.547547
vt 0.861946 -0.547547
vt 0.889679 -0.547547
vt 0.889678 -0.571353
vt 0.877309 -0.571352
vt 0.974779 -0.547547
vt 0.905042 -0.547547
vt 0.776846 -0.518974
vt 0.889678 -0.593479
vt 0.877308 -0.617284
vt 0.877308 -0.593479
vt 0.990142 -0.518974
vt 0.764477 -0.547547
vt 0.776846 -0.547547
vt 0.950974 -0.562575
vt 0.889677 -0.617284
vt 0.838141 -0.562575
vt 0.764477 -0.518974
vt 0.928847 -0.562575
vt 0.816014 -0.562575
s 0
usemtl Meshesleverbase1Mtl
f 1/1/1 2/2/1 3/3/1
f 1/1/1 4/4/1 2/2/1
f 4/4/2 5/5/2 2/2/2
f 4/4/2 6/6/2 5/5/2
f 6/6/3 7/7/3 5/5/3
f 6/6/3 8/8/3 7/7/3
f 8/8/4 9/9/4 7/7/4
f 8/8/5 10/10/5 9/9/5
f 10/10/6 11/11/6 9/9/6
f 10/10/6 12/12/6 11/11/6
f 13/13/7 9/9/7 14/14/7
f 13/13/7 2/2/7 9/9/7
f 2/2/8 7/7/8 9/9/8
f 2/2/9 5/5/9 7/7/9
f 15/15/10 4/4/10 16/16/10
f 15/15/10 10/10/10 4/4/10
f 10/10/11 6/6/11 4/4/11
f 10/10/12 8/8/12 6/6/12
f 17/17/13 18/18/13 19/19/13
f 20/20/14 21/21/14 22/22/14
f 20/20/15 23/23/15 21/21/15
f 24/24/16 25/25/16 26/26/16
f 27/27/17 28/28/17 29/29/17
f 27/27/18 18/18/18 28/28/18
f 30/30/19 23/23/19 20/20/19
f 30/30/20 31/31/20 23/23/20
f 30/30/1 32/32/1 33/33/1
f 29/29/21 34/34/21 35/35/21
f 29/29/22 28/28/22 34/34/22
f 36/36/6 37/37/6 34/34/6
f 38/38/7 20/20/7 22/22/7
f 38/38/7 39/39/7 20/20/7
f 39/39/7 30/30/7 20/20/7
f 39/39/7 40/40/7 30/30/7
f 40/40/1 32/32/1 30/30/1
f 40/40/1 41/41/1 32/32/1
f 42/42/1 18/18/1 17/17/1
f 42/42/1 43/43/1 18/18/1
f 43/43/10 28/28/10 18/18/10
f 43/43/10 44/44/10 28/28/10
f 44/44/10 34/34/10 28/28/10
f 44/44/10 45/45/10 34/34/10
f 46/46/6 34/34/6 45/45/6
f 46/46/6 36/36/6 34/34/6
f 24/24/6 47/47/6 48/48/6
f 24/24/6 26/26/6 47/47/6
f 49/49/23 50/50/23 51/51/23
f 50/50/24 52/52/24 51/51/24
f 50/50/25 53/53/25 52/52/25
f 32/32/13 42/42/13 17/17/13
f 32/32/1 41/41/1 42/42/1
f 36/36/16 47/47/16 26/26/16
f 36/36/6 46/46/6 47/47/6
f 54/54/26 55/55/26 56/56/26
f 55/55/27 57/57/27 56/56/27
f 55/55/28 58/58/28 57/57/28
f 53/53/29 58/58/29 52/52/29
f 53/53/29 57/57/29 58/58/29
f 59/17/13 60/19/13 61/18/13
f 62/20/30 63/21/30 64/23/30
f 62/20/31 65/22/31 63/21/31
f 66/24/16 67/26/16 68/25/16
f 69/27/32 70/28/32 61/18/32
f 69/27/33 71/29/33 70/28/33
f 72/30/34 64/23/34 73/31/34
f 72/30/35 62/20/35 64/23/35
f 72/30/1 74/33/1 75/32/1
f 71/29/36 76/34/36 70/28/36
f 71/29/37 77/35/37 76/34/37
f 78/36/6 76/34/6 79/37/6
f 80/38/10 62/20/10 81/39/10
f 80/38/10 65/22/10 62/20/10
f 81/39/10 72/30/10 82/40/10
f 81/39/10 62/20/10 72/30/10
f 82/40/1 75/32/1 83/41/1
f 82/40/1 72/30/1 75/32/1
f 84/42/1 61/18/1 85/43/1
f 84/42/1 59/17/1 61/18/1
f 85/43/7 70/28/7 86/44/7
f 85/43/7 61/18/7 70/28/7
f 86/44/7 76/34/7 87/45/7
f 86/44/7 70/28/7 76/34/7
f 88/46/6 76/34/6 78/36/6
f 88/46/6 87/45/6 76/34/6
f 66/24/16 89/47/16 67/26/16
f 66/24/6 90/48/6 89/47/6
f 91/49/38 92/51/38 93/50/38
f 93/50/39 94/52/39 95/53/39
f 93/50/40 92/51/40 94/52/40
f 75/32/1 84/42/1 83/41/1
f 75/32/13 59/17/13 84/42/13
f 78/36/6 89/47/6 88/46/6
f 78/36/6 67/26/6 89/47/6
f 96/54/41 97/56/41 98/55/41
f 98/55/42 99/57/42 100/58/42
f 98/55/43 97/56/43 99/57/43
f 95/53/29 100/58/29 99/57/29
f 95/53/29 94/52/29 100/58/29
f 101/59/1 102/60/1 103/61/1
f 101/59/1 104/62/1 102/60/1
f 104/62/44 105/63/44 102/60/44
f 104/62/45 106/64/45 105/63/45
f 107/65/46 108/66/46 105/63/46
f 107/65/47 109/67/47 108/66/47
f 110/68/48 111/69/48 108/66/48
f 110/68/49 112/70/49 111/69/49
f 112/70/16 113/71/16 111/69/16
f 112/70/16 114/72/16 113/71/16
f 103/61/7 111/69/7 113/71/7
f 103/61/7 102/60/7 111/69/7
f 102/60/50 108/66/50 111/69/50
f 102/60/51 105/63/51 108/66/51
f 114/72/10 115/73/10 116/74/10
f 114/72/10 112/70/10 115/73/10
f 112/70/52 117/75/52 115/73/52
f 112/70/53 110/68/53 117/75/53
f 118/59/1 119/60/1 120/62/1
f 118/59/1 121/61/1 119/60/1
f 120/62/54 122/63/54 123/64/54
f 120/62/44 119/60/44 122/63/44
f 124/65/55 125/66/55 126/67/55
f 124/65/56 122/63/56 125/66/56
f 127/68/49 128/69/49 129/70/49
f 127/68/57 125/66/57 128/69/57
f 129/70/16 130/71/16 131/72/16
f 129/70/16 128/69/16 130/71/16
f 121/61/10 128/69/10 119/60/10
f 121/61/10 130/71/10 128/69/10
f 119/60/58 125/66/58 122/63/58
f 119/60/59 128/69/59 125/66/59
f 131/72/7 132/73/7 129/70/7
f 131/72/7 133/74/7 132/73/7
f 129/70/60 134/75/60 127/68/60
f 129/70/61 132/73/61 134/75/61
f 135/59/1 136/60/1 137/62/1
f 135/59/1 138/61/1 136/60/1
f 137/62/54 139/63/54 140/64/54
f 137/62/44 136/60/44 139/63/44
f 141/65/55 142/66/55 143/67/55
f 141/65/56 139/63/56 142/66/56
f 144/68/49 145/69/49 146/70/49
f 144/68/62 142/66/62 145/69/62
f 146/70/16 147/71/16 148/72/16
f 146/70/16 145/69/16 147/71/16
f 138/61/10 145/69/10 136/60/10
f 138/61/10 147/71/10 145/69/10
f 136/60/58 142/66/58 139/63/58
f 136/60/59 145/69/59 142/66/59
f 148/72/7 149/73/7 146/70/7
f 148/72/7 150/74/7 149/73/7
f 146/70/63 151/75/63 144/68/63
f 146/70/61 149/73/61 151/75/61
f 152/59/1 153/60/1 154/61/1
f 152/59/1 155/62/1 153/60/1
f 155/62/64 156/63/64 153/60/64
f 155/62/45 157/64/45 156/63/45
f 158/65/46 159/66/46 156/63/46
f 158/65/47 160/67/47 159/66/47
f 161/68/48 162/69/48 159/66/48
f 161/68/49 163/70/49 162/69/49
f 163/70/16 164/71/16 162/69/16
f 163/70/16 165/72/16 164/71/16
f 154/61/7 162/69/7 164/71/7
f 154/61/7 153/60/7 162/69/7
f 153/60/50 159/66/50 162/69/50
f 153/60/51 156/63/51 159/66/51
f 165/72/10 166/73/10 167/74/10
f 165/72/10 163/70/10 166/73/10
f 163/70/52 168/75/52 166/73/52
f 163/70/53 161/68/53 168/75/53
f 175/76/65 176/77/65 177/78/65
f 175/76/65 178/79/65 176/77/65
f 181/80/66 170/81/66 182/82/66
f 183/83/67 184/84/67 170/81/67
f 185/85/66 181/80/66 182/82/66
f 187/86/68 185/85/68 188/87/68
f 189/88/69 181/80/69 190/89/69
f 193/80/70 194/82/70 172/81/70
f 195/83/71 172/81/71 196/84/71
f 197/85/72 194/82/72 193/80/72
f 198/86/73 199/87/73 197/85/73
f 200/88/74 201/89/74 193/80/74
f 171/90/7 172/81/7 195/83/7
f 202/91/75 203/92/75 204/93/75
f 200/88/10 193/80/10 192/94/10
f 205/95/76 171/90/76 206/96/76
f 189/88/7 190/89/7 207/97/7
f 208/92/77 209/91/77 210/93/77
f 211/98/75 209/91/75 208/92/75
f 169/90/10 183/83/10 170/81/10
f 212/95/78 213/96/78 169/90/78
f 189/88/7 186/94/7 181/80/7
f 214/98/75 203/92/75 202/91/75
f 200/88/10 215/97/10 201/89/10
f 188/87/68 185/85/68 182/82/68
f 216/99/10 184/84/10 183/83/10
f 191/100/78 171/90/78 205/95/78
f 217/100/76 212/95/76 169/90/76
f 194/82/79 197/85/79 199/87/79
f 196/84/80 218/99/80 195/83/80
f 207/97/7 190/89/7 219/101/7
f 209/91/81 187/86/81 210/93/81
f 216/99/10 183/83/10 220/102/10
f 188/87/81 210/93/81 187/86/81
f 199/87/81 198/86/81 204/93/81
f 218/99/7 221/102/7 195/83/7
f 202/91/81 204/93/81 198/86/81
f 215/97/10 222/101/10 201/89/10
f 224/90/82 225/95/82 226/96/82
f 227/96/83 228/95/83 229/90/83
f 224/90/84 223/100/84 225/95/84
f 228/95/82 230/100/82 229/90/82
l 173 174
l 176 179
l 178 180
