# WaveFront *.obj file (generated by Cinema 4D)

v -3.192182 0.224321 6.692182
v -3.192182 178.608685 6.692182
v 3.192182 0.224321 6.692182
v 3.192182 178.608685 6.692182
v 3.192182 0.224321 -6.692182
v 3.192182 178.608685 -6.692182
v -3.192182 0.224321 -6.692182
v -3.192182 178.608685 -6.692182
# 8 vertices

vn 0.000000 0.000000 1.000000
vn 1.000000 0.000000 0.000000
vn 0.000000 0.000000 -1.000000
vn -1.000000 0.000000 0.000000
vn 0.000000 1.000000 0.000000
vn 0.000000 -1.000000 0.000000
# 6 normals

vt 0.000000 0.000000 0.000000
vt 0.000000 1.000000 0.000000
vt 1.000000 1.000000 0.000000
vt 1.000000 0.000000 0.000000
# 4 texture coordinates

o Cube.1
usemtl Mat
f 3/4/1 4/3/1 2/2/1 1/1/1
f 5/4/2 6/3/2 4/2/2 3/1/2
f 7/4/3 8/3/3 6/2/3 5/1/3
f 1/4/4 2/3/4 8/2/4 7/1/4
f 4/4/5 6/3/5 8/2/5 2/1/5
f 5/4/6 3/3/6 1/2/6 7/1/6

v 169.014133 0.224321 6.692182
v 169.014133 178.608685 6.692182
v 175.398497 0.224321 6.692182
v 175.398497 178.608685 6.692182
v 175.398497 0.224321 -6.692182
v 175.398497 178.608685 -6.692182
v 169.014133 0.224321 -6.692182
v 169.014133 178.608685 -6.692182
# 8 vertices

# 0 normal

# 0 texture coordinate

o Cube
usemtl Mat
f 11/4/1 12/3/1 10/2/1 9/1/1
f 13/4/2 14/3/2 12/2/2 11/1/2
f 15/4/3 16/3/3 14/2/3 13/1/3
f 9/4/4 10/3/4 16/2/4 15/1/4
f 12/4/5 14/3/5 16/2/5 10/1/5
f 13/4/6 11/3/6 9/2/6 15/1/6

v -3.039410 178.579950 6.692182
v 175.344954 178.579950 6.692182
v -3.039410 172.195586 6.692182
v 175.344954 172.195586 6.692182
v -3.039410 172.195586 -6.692182
v 175.344954 172.195586 -6.692182
v -3.039410 178.579950 -6.692182
v 175.344954 178.579950 -6.692182
# 8 vertices

# 0 normal

# 0 texture coordinate

o Cube.2
usemtl Mat
f 19/4/1 20/3/1 18/2/1 17/1/1
f 21/4/6 22/3/6 20/2/6 19/1/6
f 23/4/3 24/3/3 22/2/3 21/1/3
f 17/4/5 18/3/5 24/2/5 23/1/5
f 20/4/2 22/3/2 24/2/2 18/1/2
f 21/4/4 19/3/4 17/2/4 23/1/4

v -3.039410 6.586982 6.692182
v 175.344954 6.586982 6.692182
v -3.039410 0.202618 6.692182
v 175.344954 0.202618 6.692182
v -3.039410 0.202618 -6.692182
v 175.344954 0.202618 -6.692182
v -3.039410 6.586982 -6.692182
v 175.344954 6.586982 -6.692182
# 8 vertices

# 0 normal

# 0 texture coordinate

o Cube.3
usemtl Mat
f 27/4/1 28/3/1 26/2/1 25/1/1
f 29/4/6 30/3/6 28/2/6 27/1/6
f 31/4/3 32/3/3 30/2/3 29/1/3
f 25/4/5 26/3/5 32/2/5 31/1/5
f 28/4/2 30/3/2 32/2/2 26/1/2
f 29/4/4 27/3/4 25/2/4 31/1/4

v -3.039410 117.488460 6.692182
v 175.344954 117.488460 6.692182
v -3.039410 111.104096 6.692182
v 175.344954 111.104096 6.692182
v -3.039410 111.104096 -6.692182
v 175.344954 111.104096 -6.692182
v -3.039410 117.488460 -6.692182
v 175.344954 117.488460 -6.692182
# 8 vertices

# 0 normal

# 0 texture coordinate

o Cube.4
usemtl Mat
f 35/4/1 36/3/1 34/2/1 33/1/1
f 37/4/6 38/3/6 36/2/6 35/1/6
f 39/4/3 40/3/3 38/2/3 37/1/3
f 33/4/5 34/3/5 40/2/5 39/1/5
f 36/4/2 38/3/2 40/2/2 34/1/2
f 37/4/4 35/3/4 33/2/4 39/1/4

v 83.960607 0.224321 6.692182
v 83.960607 178.608685 6.692182
v 90.344971 0.224321 6.692182
v 90.344971 178.608685 6.692182
v 90.344971 0.224321 -6.692182
v 90.344971 178.608685 -6.692182
v 83.960607 0.224321 -6.692182
v 83.960607 178.608685 -6.692182
# 8 vertices

# 0 normal

# 0 texture coordinate

o Cube.5
usemtl Mat
f 43/4/1 44/3/1 42/2/1 41/1/1
f 45/4/2 46/3/2 44/2/2 43/1/2
f 47/4/3 48/3/3 46/2/3 45/1/3
f 41/4/4 42/3/4 48/2/4 47/1/4
f 44/4/5 46/3/5 48/2/5 42/1/5
f 45/4/6 43/3/6 41/2/6 47/1/6

